<svg width="16" height="12" viewBox="0 0 16 12" fill="none" xmlns="http://www.w3.org/2000/svg">
<path d="M10.625 11.4L10.125 10.925L14.05 7.1H3.625C2.625 7.1 1.77083 6.75833 1.0625 6.075C0.354167 5.39167 0 4.55 0 3.55C0 2.55 0.354167 1.70833 1.0625 1.025C1.77083 0.341667 2.625 0 3.625 0H4.075V0.7H3.625C2.825 0.7 2.1375 0.975 1.5625 1.525C0.9875 2.075 0.7 2.75 0.7 3.55C0.7 4.35 0.9875 5.025 1.5625 5.575C2.1375 6.125 2.825 6.4 3.625 6.4H14.05L10.125 2.55L10.625 2.075L15.4 6.75L10.625 11.4Z" fill="white"/>
</svg>
