<svg width="100" height="111" viewBox="0 0 100 111" fill="none" xmlns="http://www.w3.org/2000/svg">
<path fill-rule="evenodd" clip-rule="evenodd" d="M37 23.9845V26.5613H63.5613V23.9845C63.5613 23.1916 63.3466 22.4978 62.9171 21.9032C62.4876 21.3085 61.8765 20.813 61.0836 20.4165C59.4978 19.6237 57.7469 18.996 55.8308 18.5335C53.9147 18.0709 52.0646 17.8397 50.2807 17.8397C48.4967 17.8397 46.6466 18.0709 44.7305 18.5335C42.8144 18.996 41.0635 19.6237 39.4777 20.4165C38.6849 20.813 38.0737 21.3085 37.6442 21.9032C37.2147 22.4978 37 23.1916 37 23.9845ZM62.1738 25.1738H38.3875V23.9845C38.3875 23.3898 38.561 22.9108 38.9079 22.5474C39.2547 22.184 39.676 21.8701 40.1715 21.6059C41.4269 20.9451 42.9879 20.3835 44.8544 19.921C46.721 19.4585 48.5297 19.2272 50.2807 19.2272C52.0316 19.2272 53.8403 19.4585 55.7069 19.921C57.5735 20.3835 59.1344 20.9451 60.3898 21.6059C60.8854 21.8701 61.3066 22.184 61.6535 22.5474C62.0003 22.9108 62.1738 23.3898 62.1738 23.9845V25.1738ZM46.4402 11.1746C47.4478 12.1822 48.7279 12.686 50.2807 12.686C51.8334 12.686 53.1135 12.1822 54.1211 11.1746C55.1288 10.167 55.6326 8.7877 55.6326 7.03677H56.029C56.2272 7.03677 56.3924 6.9707 56.5246 6.83855C56.6567 6.7064 56.7228 6.54122 56.7228 6.343C56.7228 6.14478 56.6567 5.9796 56.5246 5.84745C56.3924 5.71531 56.2272 5.64924 56.029 5.64924H55.6326C55.5665 4.79029 55.4096 4.00567 55.1618 3.29539C54.914 2.5851 54.4102 1.85004 53.6504 1.0902V2.97328C53.6504 3.1715 53.5843 3.33668 53.4522 3.46883C53.32 3.60098 53.1548 3.66705 52.9566 3.66705C52.7584 3.66705 52.5932 3.60098 52.4611 3.46883C52.3289 3.33668 52.2628 3.1715 52.2628 2.97328V0.396437C51.9986 0.297328 51.693 0.206478 51.3461 0.123887C50.9992 0.0412956 50.6441 0 50.2807 0C49.9173 0 49.5621 0.0412956 49.2152 0.123887C48.8684 0.206478 48.5628 0.297328 48.2985 0.396437V2.97328C48.2985 3.1715 48.2324 3.33668 48.1003 3.46883C47.9681 3.60098 47.8029 3.66705 47.6047 3.66705C47.4065 3.66705 47.2413 3.60098 47.1092 3.46883C46.977 3.33668 46.9109 3.1715 46.9109 2.97328V1.0902C46.1841 1.85004 45.6886 2.5851 45.4243 3.29539C45.16 4.00567 44.9948 4.79029 44.9288 5.64924H44.5323C44.3341 5.64924 44.1689 5.71531 44.0368 5.84745C43.9046 5.9796 43.8385 6.14478 43.8385 6.343C43.8385 6.54122 43.9046 6.7064 44.0368 6.83855C44.1689 6.9707 44.3341 7.03677 44.5323 7.03677H44.9288C44.9288 8.7877 45.4326 10.167 46.4402 11.1746ZM53.1301 10.1835C52.3867 10.9268 51.4369 11.2985 50.2807 11.2985C49.1244 11.2985 48.1746 10.9268 47.4313 10.1835C46.6879 9.44017 46.3163 8.49037 46.3163 7.3341H54.245C54.245 8.49037 53.8734 9.44017 53.1301 10.1835Z" fill="black"/>
<path d="M38.1186 58.862V61.337H40.5936V61.997H38.1186V64.472H37.4586V61.997H34.9836V61.337H37.4586V58.862H38.1186ZM46.7098 57.212V65H45.9178V58.191L44.5098 59.39L44.0258 58.84L46.0058 57.212H46.7098ZM56.0167 64.296V65H51.0337V64.175L54.2237 60.952C54.6967 60.468 55.1587 59.885 55.1587 59.17C55.1587 58.268 54.4547 57.685 53.6187 57.685C52.7827 57.685 52.1777 58.268 52.0127 59.071L51.2317 58.917C51.4517 57.817 52.3977 57.014 53.6187 57.014C54.8727 57.014 55.9617 57.74 55.9617 59.159C55.9617 60.16 55.3787 60.831 54.6967 61.513L51.8917 64.296H56.0167ZM61.3635 57.014C63.2995 57.014 63.9155 59.093 63.9155 61.117C63.9155 63.141 63.2995 65.198 61.3635 65.198C59.4055 65.198 58.8115 63.141 58.8115 61.117C58.8115 59.093 59.4055 57.014 61.3635 57.014ZM61.3635 57.685C59.9775 57.685 59.6145 59.566 59.6145 61.117C59.6145 62.668 59.9775 64.516 61.3635 64.516C62.7275 64.516 63.1125 62.668 63.1125 61.117C63.1125 59.566 62.7275 57.685 61.3635 57.685ZM10.8634 73.611L10.2804 74.029C10.0384 73.633 9.52142 73.347 8.96042 73.347C7.76142 73.347 6.99142 74.249 6.99142 75.426C6.99142 76.592 7.75042 77.494 8.94942 77.494C9.59842 77.494 10.0494 77.219 10.3464 76.823L10.9074 77.241C10.4674 77.78 9.84042 78.132 8.94942 78.132C7.28842 78.132 6.19942 76.977 6.19942 75.426C6.19942 73.875 7.28842 72.72 8.94942 72.72C9.64242 72.72 10.4234 73.017 10.8634 73.611ZM18.5084 75.426C18.5084 76.977 17.3644 78.132 15.7584 78.132C14.1634 78.132 13.0194 76.977 13.0194 75.426C13.0194 73.875 14.1634 72.72 15.7584 72.72C17.3644 72.72 18.5084 73.875 18.5084 75.426ZM17.7164 75.426C17.7164 74.271 16.9574 73.347 15.7584 73.347C14.5704 73.347 13.8114 74.271 13.8114 75.426C13.8114 76.581 14.5704 77.494 15.7584 77.494C16.9574 77.494 17.7164 76.581 17.7164 75.426ZM22.208 69.684V78H21.46V69.684H22.208ZM28.7745 74.843V74.678C28.7745 73.787 28.2905 73.347 27.3995 73.347C26.7945 73.347 26.2335 73.589 25.8705 73.952L25.4525 73.457C25.8705 73.039 26.5965 72.72 27.4765 72.72C28.5875 72.72 29.4785 73.336 29.4785 74.59V76.845C29.4785 77.241 29.5115 77.714 29.5665 78H28.8955C28.8515 77.747 28.8185 77.439 28.8185 77.164H28.7965C28.3235 77.846 27.7515 78.132 26.9265 78.132C26.1455 78.132 25.1445 77.714 25.1445 76.57C25.1445 74.986 26.8935 74.843 28.7745 74.843ZM28.7745 75.426H28.5545C27.3335 75.426 25.9145 75.558 25.9145 76.537C25.9145 77.274 26.5415 77.516 27.1245 77.516C28.1805 77.516 28.7745 76.724 28.7745 75.811V75.426ZM33.5175 77.131H33.4955V78H32.7475V69.684H33.4955V73.743H33.5175C33.9575 73.072 34.7275 72.72 35.4645 72.72C37.0705 72.72 38.1265 73.908 38.1265 75.426C38.1265 76.944 37.0705 78.132 35.4645 78.132C34.7275 78.132 33.9575 77.78 33.5175 77.131ZM37.3345 75.426C37.3345 74.282 36.6305 73.347 35.3875 73.347C34.2325 73.347 33.4075 74.249 33.4075 75.426C33.4075 76.603 34.2325 77.494 35.3875 77.494C36.6305 77.494 37.3345 76.57 37.3345 75.426ZM46.1644 75.426C46.1644 76.977 45.0204 78.132 43.4144 78.132C41.8194 78.132 40.6754 76.977 40.6754 75.426C40.6754 73.875 41.8194 72.72 43.4144 72.72C45.0204 72.72 46.1644 73.875 46.1644 75.426ZM45.3724 75.426C45.3724 74.271 44.6134 73.347 43.4144 73.347C42.2264 73.347 41.4674 74.271 41.4674 75.426C41.4674 76.581 42.2264 77.494 43.4144 77.494C44.6134 77.494 45.3724 76.581 45.3724 75.426ZM49.094 73.985C49.094 73.71 49.083 73.204 49.05 72.852H49.765C49.787 73.127 49.809 73.512 49.809 73.732H49.831C50.117 73.138 50.755 72.72 51.481 72.72C51.668 72.72 51.822 72.731 51.976 72.775L51.877 73.479C51.789 73.446 51.547 73.413 51.349 73.413C50.557 73.413 49.842 73.985 49.842 75.36V78H49.094V73.985ZM57.494 74.843V74.678C57.494 73.787 57.01 73.347 56.119 73.347C55.514 73.347 54.953 73.589 54.59 73.952L54.172 73.457C54.59 73.039 55.316 72.72 56.196 72.72C57.307 72.72 58.198 73.336 58.198 74.59V76.845C58.198 77.241 58.231 77.714 58.286 78H57.615C57.571 77.747 57.538 77.439 57.538 77.164H57.516C57.043 77.846 56.471 78.132 55.646 78.132C54.865 78.132 53.864 77.714 53.864 76.57C53.864 74.986 55.613 74.843 57.494 74.843ZM57.494 75.426H57.274C56.053 75.426 54.634 75.558 54.634 76.537C54.634 77.274 55.261 77.516 55.844 77.516C56.9 77.516 57.494 76.724 57.494 75.811V75.426ZM65.6799 77.131C65.2399 77.78 64.4699 78.132 63.7329 78.132C62.1269 78.132 61.0709 76.944 61.0709 75.426C61.0709 73.908 62.1269 72.72 63.7329 72.72C64.4699 72.72 65.2399 73.072 65.6799 73.743H65.7019V69.684H66.4499V78H65.7019V77.131H65.6799ZM61.8629 75.426C61.8629 76.57 62.5669 77.494 63.8099 77.494C64.9649 77.494 65.7899 76.603 65.7899 75.426C65.7899 74.249 64.9649 73.347 63.8099 73.347C62.5669 73.347 61.8629 74.282 61.8629 75.426ZM74.8838 75.426C74.8838 76.977 73.7398 78.132 72.1338 78.132C70.5388 78.132 69.3948 76.977 69.3948 75.426C69.3948 73.875 70.5388 72.72 72.1338 72.72C73.7398 72.72 74.8838 73.875 74.8838 75.426ZM74.0918 75.426C74.0918 74.271 73.3328 73.347 72.1338 73.347C70.9458 73.347 70.1868 74.271 70.1868 75.426C70.1868 76.581 70.9458 77.494 72.1338 77.494C73.3328 77.494 74.0918 76.581 74.0918 75.426ZM77.8135 73.985C77.8135 73.71 77.8025 73.204 77.7695 72.852H78.4845C78.5065 73.127 78.5285 73.512 78.5285 73.732H78.5505C78.8365 73.138 79.4745 72.72 80.2005 72.72C80.3875 72.72 80.5415 72.731 80.6955 72.775L80.5965 73.479C80.5085 73.446 80.2665 73.413 80.0685 73.413C79.2765 73.413 78.5615 73.985 78.5615 75.36V78H77.8135V73.985ZM83.322 75.03H86.831C86.787 74.062 86.193 73.347 85.126 73.347C84.125 73.347 83.388 74.15 83.322 75.03ZM87.59 75.272C87.59 75.371 87.59 75.492 87.579 75.624H83.311C83.333 76.658 84.136 77.494 85.192 77.494C85.962 77.494 86.556 77.065 86.842 76.603L87.403 77.043C86.798 77.813 86.039 78.132 85.192 78.132C83.663 78.132 82.53 76.977 82.53 75.426C82.53 73.875 83.663 72.72 85.126 72.72C86.743 72.72 87.59 73.864 87.59 75.272ZM93.8299 73.644L93.2579 74.073C93.0379 73.644 92.5649 73.347 91.9929 73.347C91.4539 73.347 90.9039 73.578 90.9039 74.15C90.9039 74.634 91.2889 74.854 92.1359 75.03C93.3459 75.283 93.9179 75.734 93.9179 76.537C93.9179 77.714 92.9279 78.132 91.9819 78.132C91.2009 78.132 90.4199 77.824 89.9469 77.131L90.5409 76.691C90.8049 77.142 91.3659 77.494 91.9709 77.494C92.6089 77.494 93.1809 77.263 93.1809 76.592C93.1809 76.053 92.6419 75.833 91.6629 75.602C91.0579 75.459 90.1889 75.195 90.1889 74.216C90.1889 73.171 91.0909 72.72 92.0259 72.72C92.7409 72.72 93.4999 73.061 93.8299 73.644Z" fill="black"/>
<path d="M25 17H9.84106C4.95828 17 1 20.9583 1 25.8411V101.159C1 106.042 4.95827 110 9.84106 110H90.1589C95.0417 110 99 106.042 99 101.159V25.8411C99 20.9583 95.0417 17 90.1589 17H75.5" stroke="black"/>
</svg>
