<svg width="20" height="20" viewBox="0 0 20 20" fill="none" xmlns="http://www.w3.org/2000/svg">
<path d="M15.0737 19.0476H5.87875C3.16199 19.0476 0.952393 16.8683 0.952393 14.1888V4.85883C0.952393 2.17931 3.16199 0 5.87875 0H15.0737C17.7904 0 20 2.17931 20 4.85883V14.1888C20 16.8683 17.7904 19.0476 15.0737 19.0476ZM5.87875 1.64921C4.08362 1.64921 2.62363 3.08918 2.62363 4.85883V14.1888C2.62363 15.9584 4.08362 17.3984 5.87875 17.3984H15.0737C16.8679 17.3984 18.3279 15.9584 18.3279 14.1888V4.85883C18.3279 3.08918 16.8679 1.64921 15.0737 1.64921H5.87875Z" fill="white"/>
<path d="M10.4764 14.3206C7.79525 14.3206 5.61328 12.1685 5.61328 9.52419C5.61328 6.87984 7.79525 4.72778 10.4764 4.72778C13.1575 4.72778 15.3394 6.87984 15.3394 9.52419C15.3394 12.1685 13.1575 14.3206 10.4764 14.3206ZM10.4764 6.37611C8.71688 6.37611 7.28541 7.78796 7.28541 9.52331C7.28541 11.2587 8.71688 12.6705 10.4764 12.6705C12.2358 12.6705 13.6673 11.2587 13.6673 9.52331C13.6673 7.78796 12.2358 6.37611 10.4764 6.37611Z" fill="white"/>
<path d="M15.7653 5.30792C16.3176 5.30792 16.7654 4.86631 16.7654 4.32156C16.7654 3.77681 16.3176 3.33521 15.7653 3.33521C15.213 3.33521 14.7653 3.77681 14.7653 4.32156C14.7653 4.86631 15.213 5.30792 15.7653 5.30792Z" fill="white"/>
</svg>
