<svg width="16" height="17" viewBox="0 0 16 17" fill="none" xmlns="http://www.w3.org/2000/svg">
<path d="M9.33079 8.50013L15.724 1.70722C16.092 1.31622 16.092 0.684242 15.724 0.293247C15.356 -0.0977489 14.7612 -0.0977489 14.3932 0.293247L8.00002 7.08616L1.60677 0.293247C1.23878 -0.0977489 0.643981 -0.0977489 0.275992 0.293247C-0.0919973 0.684242 -0.0919973 1.31622 0.275992 1.70722L6.66921 8.50013L0.275992 15.293C-0.0919973 15.684 -0.0919973 16.316 0.275992 16.707C0.459518 16.902 0.700448 17 0.941379 17C1.18231 17 1.42324 16.902 1.60677 16.707L7.99998 9.9141L14.3932 16.707C14.5767 16.902 14.8177 17 15.0586 17C15.2995 17 15.5405 16.902 15.724 16.707C16.092 16.316 16.092 15.684 15.724 15.293L9.33079 8.50013Z" fill="black"/>
</svg>
