<svg width="19" height="20" viewBox="0 0 19 20" fill="none" xmlns="http://www.w3.org/2000/svg">
<path fill-rule="evenodd" clip-rule="evenodd" d="M16.2317 2.77445C14.4456 0.986262 12.0703 0.00104872 9.53973 0C4.32527 0 0.0814506 4.2437 0.0793531 9.45957C0.078654 11.1269 0.514222 12.7545 1.34213 14.1892L0 19.0914L5.01509 17.7758C6.39696 18.5296 7.95267 18.9268 9.53589 18.9273H9.53985C14.7537 18.9273 18.998 14.6832 19 9.46714C19.001 6.93926 18.0179 4.56251 16.2317 2.77445ZM9.53973 17.3296H9.53647C8.1256 17.329 6.74187 16.9499 5.53444 16.2336L5.24744 16.0631L2.27141 16.8438L3.06576 13.9423L2.87873 13.6448C2.09161 12.3928 1.67597 10.9458 1.67667 9.46015C1.6783 5.12486 5.20573 1.59778 9.54288 1.59778C11.6431 1.59848 13.6174 2.41741 15.1019 3.90368C16.5864 5.38995 17.4035 7.36551 17.4028 9.46656C17.4009 13.8022 13.8737 17.3296 9.53973 17.3296ZM13.8528 11.4406C13.6165 11.3222 12.4542 10.7505 12.2375 10.6715C12.021 10.5926 11.8632 10.5534 11.7058 10.7899C11.5481 11.0265 11.0952 11.559 10.9573 11.7166C10.8193 11.8744 10.6816 11.8942 10.4451 11.7758C10.2087 11.6576 9.4471 11.4079 8.54415 10.6026C7.84151 9.97577 7.36714 9.2017 7.22917 8.96515C7.09144 8.72838 7.22801 8.61278 7.33288 8.48274C7.58877 8.16498 7.845 7.83184 7.92377 7.67418C8.00266 7.51641 7.96316 7.37832 7.90397 7.26005C7.845 7.14178 7.37226 5.97828 7.17534 5.50484C6.98331 5.04411 6.78859 5.10633 6.6434 5.09911C6.50567 5.09223 6.34802 5.09083 6.19036 5.09083C6.03282 5.09083 5.7767 5.14991 5.55996 5.38669C5.34334 5.62335 4.73275 6.19514 4.73275 7.35863C4.73275 8.52213 5.57977 9.64612 5.69793 9.80389C5.81608 9.96167 7.36481 12.3493 9.73596 13.373C10.2999 13.6168 10.7402 13.7621 11.0836 13.8711C11.6499 14.051 12.165 14.0256 12.5724 13.9647C13.0266 13.8968 13.9708 13.3928 14.168 12.8408C14.3649 12.2885 14.3649 11.8153 14.3057 11.7166C14.2467 11.6181 14.0891 11.559 13.8528 11.4406Z" fill="white"/>
</svg>
