<svg width="19" height="19" viewBox="0 0 19 19" fill="none" xmlns="http://www.w3.org/2000/svg">
<path d="M16.1429 0H2.14286C0.961286 0 0 0.961286 0 2.14286V16.1429C0 17.3244 0.961286 18.2857 2.14286 18.2857H16.1429C17.3244 18.2857 18.2857 17.3244 18.2857 16.1429V2.14286C18.2857 0.961286 17.3244 0 16.1429 0ZM16.8571 16.1429C16.8571 16.5367 16.5367 16.8571 16.1429 16.8571H12.0714V11.0357H14.2782L14.6429 8.82143H12.0714V7.28571C12.0714 6.67946 12.5366 6.21429 13.1429 6.21429H14.6071V4H13.1429C11.3242 4 9.85793 5.47321 9.85793 7.29193V8.82143H7.71429V11.0357H9.85793V16.8571H2.14286C1.749 16.8571 1.42857 16.5367 1.42857 16.1429V2.14286C1.42857 1.749 1.749 1.42857 2.14286 1.42857H16.1429C16.5367 1.42857 16.8571 1.749 16.8571 2.14286V16.1429Z" fill="white"/>
</svg>
