<svg width="100" height="108" viewBox="0 0 100 108" fill="none" xmlns="http://www.w3.org/2000/svg">
<path d="M18.0037 54.212L20.6437 60.658H20.6547L23.2617 54.212H24.4717V62H23.6797V55.235H23.6577L20.8417 62H20.4237L17.6077 55.235H17.5857V62H16.7937V54.212H18.0037ZM31.0579 58.843V58.678C31.0579 57.787 30.5739 57.347 29.6829 57.347C29.0779 57.347 28.5169 57.589 28.1539 57.952L27.7359 57.457C28.1539 57.039 28.8799 56.72 29.7599 56.72C30.8709 56.72 31.7619 57.336 31.7619 58.59V60.845C31.7619 61.241 31.7949 61.714 31.8499 62H31.1789C31.1349 61.747 31.1019 61.439 31.1019 61.164H31.0799C30.6069 61.846 30.0349 62.132 29.2099 62.132C28.4289 62.132 27.4279 61.714 27.4279 60.57C27.4279 58.986 29.1769 58.843 31.0579 58.843ZM31.0579 59.426H30.8379C29.6169 59.426 28.1979 59.558 28.1979 60.537C28.1979 61.274 28.8249 61.516 29.4079 61.516C30.4639 61.516 31.0579 60.724 31.0579 59.811V59.426ZM39.2658 61.131H39.2328C38.8038 61.769 38.0338 62.132 37.2968 62.132C35.6908 62.132 34.6348 60.944 34.6348 59.426C34.6348 57.908 35.6908 56.72 37.2968 56.72C38.0338 56.72 38.8038 57.072 39.2328 57.743H39.2658V56.852H40.0138V64.64H39.2658V61.131ZM35.4268 59.426C35.4268 60.57 36.1308 61.494 37.3738 61.494C38.5288 61.494 39.3538 60.603 39.3538 59.426C39.3538 58.249 38.5288 57.347 37.3738 57.347C36.1308 57.347 35.4268 58.282 35.4268 59.426ZM47.7663 62H47.0513C47.0293 61.725 47.0073 61.34 47.0073 61.12H46.9853C46.6993 61.714 45.9513 62.132 45.2253 62.132C43.9163 62.132 43.2673 61.285 43.2673 60.009V56.852H44.0153V59.701C44.0153 60.779 44.3343 61.505 45.4123 61.505C46.2043 61.505 46.9743 60.867 46.9743 59.492V56.852H47.7223V60.867C47.7223 61.142 47.7333 61.648 47.7663 62ZM51.7819 56.852V62H51.0339V56.852H51.7819ZM51.9359 54.872C51.9359 55.18 51.6719 55.4 51.4079 55.4C51.1439 55.4 50.8799 55.18 50.8799 54.872C50.8799 54.564 51.1439 54.344 51.4079 54.344C51.6719 54.344 51.9359 54.564 51.9359 54.872ZM55.0489 56.852H55.7639C55.7859 57.127 55.8079 57.512 55.8079 57.732H55.8299C56.1159 57.138 56.8639 56.72 57.5899 56.72C58.8989 56.72 59.5479 57.567 59.5479 58.843V62H58.7999V59.151C58.7999 58.073 58.4809 57.347 57.4029 57.347C56.6109 57.347 55.8409 57.985 55.8409 59.36V62H55.0929V57.985C55.0929 57.71 55.0819 57.204 55.0489 56.852ZM66.0495 58.843V58.678C66.0495 57.787 65.5655 57.347 64.6745 57.347C64.0695 57.347 63.5085 57.589 63.1455 57.952L62.7275 57.457C63.1455 57.039 63.8715 56.72 64.7515 56.72C65.8625 56.72 66.7535 57.336 66.7535 58.59V60.845C66.7535 61.241 66.7865 61.714 66.8415 62H66.1705C66.1265 61.747 66.0935 61.439 66.0935 61.164H66.0715C65.5985 61.846 65.0265 62.132 64.2015 62.132C63.4205 62.132 62.4195 61.714 62.4195 60.57C62.4195 58.986 64.1685 58.843 66.0495 58.843ZM66.0495 59.426H65.8295C64.6085 59.426 63.1895 59.558 63.1895 60.537C63.1895 61.274 63.8165 61.516 64.3995 61.516C65.4555 61.516 66.0495 60.724 66.0495 59.811V59.426ZM70.0005 57.985C70.0005 57.71 69.9895 57.204 69.9565 56.852H70.6715C70.6935 57.127 70.7155 57.512 70.7155 57.732H70.7375C71.0235 57.138 71.6615 56.72 72.3875 56.72C72.5745 56.72 72.7285 56.731 72.8825 56.775L72.7835 57.479C72.6955 57.446 72.4535 57.413 72.2555 57.413C71.4635 57.413 70.7485 57.985 70.7485 59.36V62H70.0005V57.985ZM76.0433 56.852V62H75.2953V56.852H76.0433ZM76.1973 54.872C76.1973 55.18 75.9333 55.4 75.6693 55.4C75.4053 55.4 75.1413 55.18 75.1413 54.872C75.1413 54.564 75.4053 54.344 75.6693 54.344C75.9333 54.344 76.1973 54.564 76.1973 54.872ZM82.5993 58.843V58.678C82.5993 57.787 82.1153 57.347 81.2243 57.347C80.6193 57.347 80.0583 57.589 79.6953 57.952L79.2773 57.457C79.6953 57.039 80.4213 56.72 81.3013 56.72C82.4123 56.72 83.3033 57.336 83.3033 58.59V60.845C83.3033 61.241 83.3363 61.714 83.3913 62H82.7203C82.6763 61.747 82.6433 61.439 82.6433 61.164H82.6213C82.1483 61.846 81.5763 62.132 80.7513 62.132C79.9703 62.132 78.9693 61.714 78.9693 60.57C78.9693 58.986 80.7183 58.843 82.5993 58.843ZM82.5993 59.426H82.3793C81.1583 59.426 79.7393 59.558 79.7393 60.537C79.7393 61.274 80.3663 61.516 80.9493 61.516C82.0053 61.516 82.5993 60.724 82.5993 59.811V59.426ZM22.6703 69.852V75H21.9223V69.852H22.6703ZM22.8243 67.872C22.8243 68.18 22.5603 68.4 22.2963 68.4C22.0323 68.4 21.7683 68.18 21.7683 67.872C21.7683 67.564 22.0323 67.344 22.2963 67.344C22.5603 67.344 22.8243 67.564 22.8243 67.872ZM25.9373 69.852H26.6523C26.6743 70.127 26.6963 70.512 26.6963 70.732H26.7183C27.0043 70.138 27.7523 69.72 28.4783 69.72C29.7873 69.72 30.4363 70.567 30.4363 71.843V75H29.6883V72.151C29.6883 71.073 29.3693 70.347 28.2913 70.347C27.4993 70.347 26.7293 70.985 26.7293 72.36V75H25.9813V70.985C25.9813 70.71 25.9703 70.204 25.9373 69.852ZM37.9279 74.131C37.4879 74.78 36.7179 75.132 35.9809 75.132C34.3749 75.132 33.3189 73.944 33.3189 72.426C33.3189 70.908 34.3749 69.72 35.9809 69.72C36.7179 69.72 37.4879 70.072 37.9279 70.743H37.9499V66.684H38.6979V75H37.9499V74.131H37.9279ZM34.1109 72.426C34.1109 73.57 34.8149 74.494 36.0579 74.494C37.2129 74.494 38.0379 73.603 38.0379 72.426C38.0379 71.249 37.2129 70.347 36.0579 70.347C34.8149 70.347 34.1109 71.282 34.1109 72.426ZM46.4718 75H45.7568C45.7348 74.725 45.7128 74.34 45.7128 74.12H45.6908C45.4048 74.714 44.6568 75.132 43.9308 75.132C42.6218 75.132 41.9728 74.285 41.9728 73.009V69.852H42.7208V72.701C42.7208 73.779 43.0398 74.505 44.1178 74.505C44.9098 74.505 45.6798 73.867 45.6798 72.492V69.852H46.4278V73.867C46.4278 74.142 46.4388 74.648 46.4718 75ZM53.0394 70.644L52.4674 71.073C52.2474 70.644 51.7744 70.347 51.2024 70.347C50.6634 70.347 50.1134 70.578 50.1134 71.15C50.1134 71.634 50.4984 71.854 51.3454 72.03C52.5554 72.283 53.1274 72.734 53.1274 73.537C53.1274 74.714 52.1374 75.132 51.1914 75.132C50.4104 75.132 49.6294 74.824 49.1564 74.131L49.7504 73.691C50.0144 74.142 50.5754 74.494 51.1804 74.494C51.8184 74.494 52.3904 74.263 52.3904 73.592C52.3904 73.053 51.8514 72.833 50.8724 72.602C50.2674 72.459 49.3984 72.195 49.3984 71.216C49.3984 70.171 50.3004 69.72 51.2354 69.72C51.9504 69.72 52.7094 70.061 53.0394 70.644ZM58.2571 69.852V70.479H56.8051V73.482C56.8051 74.252 57.1241 74.428 57.5751 74.428C57.7841 74.428 58.0261 74.362 58.2241 74.263L58.2571 74.912C57.9931 75.011 57.7181 75.066 57.3771 75.066C56.8271 75.066 56.0571 74.824 56.0571 73.691V70.479H54.9901V69.852H56.0571V68.4H56.8051V69.852H58.2571ZM60.7473 70.985C60.7473 70.71 60.7363 70.204 60.7033 69.852H61.4183C61.4403 70.127 61.4623 70.512 61.4623 70.732H61.4843C61.7703 70.138 62.4083 69.72 63.1343 69.72C63.3213 69.72 63.4753 69.731 63.6293 69.775L63.5303 70.479C63.4423 70.446 63.2003 70.413 63.0023 70.413C62.2103 70.413 61.4953 70.985 61.4953 72.36V75H60.7473V70.985ZM66.7902 69.852V75H66.0422V69.852H66.7902ZM66.9442 67.872C66.9442 68.18 66.6802 68.4 66.4162 68.4C66.1522 68.4 65.8882 68.18 65.8882 67.872C65.8882 67.564 66.1522 67.344 66.4162 67.344C66.6802 67.344 66.9442 67.564 66.9442 67.872ZM73.3462 71.843V71.678C73.3462 70.787 72.8622 70.347 71.9712 70.347C71.3662 70.347 70.8052 70.589 70.4422 70.952L70.0242 70.457C70.4422 70.039 71.1682 69.72 72.0482 69.72C73.1592 69.72 74.0502 70.336 74.0502 71.59V73.845C74.0502 74.241 74.0832 74.714 74.1382 75H73.4672C73.4232 74.747 73.3902 74.439 73.3902 74.164H73.3682C72.8952 74.846 72.3232 75.132 71.4982 75.132C70.7172 75.132 69.7162 74.714 69.7162 73.57C69.7162 71.986 71.4652 71.843 73.3462 71.843ZM73.3462 72.426H73.1262C71.9052 72.426 70.4862 72.558 70.4862 73.537C70.4862 74.274 71.1132 74.516 71.6962 74.516C72.7522 74.516 73.3462 73.724 73.3462 72.811V72.426ZM78.0672 66.684V75H77.3192V66.684H78.0672Z" fill="black"/>
<path d="M37.748 27V24.9024H42.992L38.4472 10.0443C37.6897 9.69472 37.0925 9.19945 36.6555 8.55852C36.2185 7.91758 36 7.16011 36 6.28611C36 5.1499 36.4006 4.18121 37.2018 3.38004C38.0029 2.57887 38.9716 2.17829 40.1078 2.17829C41.1566 2.17829 42.0452 2.50604 42.7735 3.16154C43.5019 3.81704 43.9826 4.65463 44.2156 5.6743H50.8581V2.79009C50.8581 2.61529 50.9163 2.46962 51.0329 2.35309C51.1494 2.23655 51.2951 2.17829 51.4699 2.17829C51.6447 2.17829 51.7903 2.23655 51.9069 2.35309C52.0234 2.46962 52.0817 2.61529 52.0817 2.79009V3.40189L55.3155 0.430279C55.5486 0.197211 55.8035 0.0588272 56.0802 0.015127C56.357 -0.0285732 56.6265 0.0224104 56.8887 0.168078L63.4437 3.22709C63.6185 3.31449 63.7569 3.43831 63.8589 3.59854C63.9608 3.75878 63.9681 3.92629 63.8807 4.1011C63.7933 4.2759 63.6695 4.38515 63.5093 4.42885C63.349 4.47255 63.1815 4.4507 63.0067 4.3633L56.2769 1.21688L52.0817 5.0625V7.50971L56.2769 11.2679L63.0067 8.12151C63.1815 8.03411 63.349 8.01226 63.5093 8.05596C63.6695 8.09966 63.7933 8.20891 63.8807 8.38372C63.9681 8.55852 63.9608 8.72603 63.8589 8.88627C63.7569 9.0465 63.6185 9.17032 63.4437 9.25772L56.8887 12.3167C56.6265 12.4624 56.357 12.5061 56.0802 12.4478C55.8035 12.3896 55.5486 12.2585 55.3155 12.0545L52.0817 9.17032V9.78212C52.0817 9.95692 52.0234 10.1026 51.9069 10.2191C51.7903 10.3357 51.6447 10.3939 51.4699 10.3939C51.2951 10.3939 51.1494 10.3357 51.0329 10.2191C50.9163 10.1026 50.8581 9.95692 50.8581 9.78212V6.89791H44.2156C44.1282 7.33491 43.968 7.77191 43.7349 8.20891C43.5019 8.64592 43.2542 8.99552 42.992 9.25772L51.3825 24.9024H58.1997V27H37.748ZM40.1078 9.17032C40.8944 9.17032 41.5718 8.88627 42.1399 8.31816C42.708 7.75006 42.992 7.07271 42.992 6.28611C42.992 5.4995 42.708 4.82215 42.1399 4.25405C41.5718 3.68594 40.8944 3.40189 40.1078 3.40189C39.3212 3.40189 38.6439 3.68594 38.0758 4.25405C37.5077 4.82215 37.2236 5.4995 37.2236 6.28611C37.2236 7.07271 37.5077 7.75006 38.0758 8.31816C38.6439 8.88627 39.3212 9.17032 40.1078 9.17032ZM44.303 24.9024H49.9841L41.9432 9.95692C41.7102 10.1026 41.3897 10.2264 40.9818 10.3284C40.574 10.4303 40.1952 10.4522 39.8456 10.3939L44.303 24.9024Z" fill="black"/>
<path d="M25 14H9.84106C4.95828 14 1 17.9583 1 22.8411V98.1589C1 103.042 4.95827 107 9.84106 107H90.1589C95.0417 107 99 103.042 99 98.1589V22.8411C99 17.9583 95.0417 14 90.1589 14H75.5" stroke="black"/>
</svg>
