<svg width="100" height="117" viewBox="0 0 100 117" fill="none" xmlns="http://www.w3.org/2000/svg">
<path d="M33 32.9885V13.1753L41.8506 9.40374V13.3261L51.908 9.30316V14.0805H68V32.9885H33ZM34.408 31.5805H66.592V15.4885H50.5V11.3649L40.4425 15.3879V11.4655L34.408 14.1307V31.5805ZM49.092 26.3506H51.908V20.7184H49.092V26.3506ZM41.046 26.3506H43.8621V20.7184H41.046V26.3506ZM57.1379 26.3506H59.954V20.7184H57.1379V26.3506ZM68 14.0805H62.8707L64.8822 0H66.2902L68 14.0805Z" fill="black"/>
<path d="M26.2761 63.212L24.0871 66.611L24.1091 66.633C24.3401 66.457 24.8241 66.347 25.2201 66.347C26.5731 66.347 27.5961 67.326 27.5961 68.745C27.5961 70.197 26.5291 71.198 25.0661 71.198C23.6031 71.198 22.5361 70.197 22.5361 68.745C22.5361 67.942 22.8551 67.26 23.2401 66.633L25.3631 63.212H26.2761ZM23.3281 68.745C23.3281 69.757 24.0431 70.527 25.0661 70.527C26.0891 70.527 26.8041 69.757 26.8041 68.745C26.8041 67.744 26.1331 66.985 25.0661 66.985C23.9991 66.985 23.3281 67.744 23.3281 68.745ZM32.327 63.212L30.875 64.796H30.226L31.326 63.212H32.327ZM36.7295 63.014C38.6655 63.014 39.2815 65.093 39.2815 67.117C39.2815 69.141 38.6655 71.198 36.7295 71.198C34.7715 71.198 34.1775 69.141 34.1775 67.117C34.1775 65.093 34.7715 63.014 36.7295 63.014ZM36.7295 63.685C35.3435 63.685 34.9805 65.566 34.9805 67.117C34.9805 68.668 35.3435 70.516 36.7295 70.516C38.0935 70.516 38.4785 68.668 38.4785 67.117C38.4785 65.566 38.0935 63.685 36.7295 63.685ZM44.4304 63.014C46.3664 63.014 46.9824 65.093 46.9824 67.117C46.9824 69.141 46.3664 71.198 44.4304 71.198C42.4724 71.198 41.8784 69.141 41.8784 67.117C41.8784 65.093 42.4724 63.014 44.4304 63.014ZM44.4304 63.685C43.0444 63.685 42.6814 65.566 42.6814 67.117C42.6814 68.668 43.0444 70.516 44.4304 70.516C45.7944 70.516 46.1794 68.668 46.1794 67.117C46.1794 65.566 45.7944 63.685 44.4304 63.685ZM52.1313 63.014C54.0673 63.014 54.6833 65.093 54.6833 67.117C54.6833 69.141 54.0673 71.198 52.1313 71.198C50.1732 71.198 49.5792 69.141 49.5792 67.117C49.5792 65.093 50.1732 63.014 52.1313 63.014ZM52.1313 63.685C50.7452 63.685 50.3822 65.566 50.3822 67.117C50.3822 68.668 50.7452 70.516 52.1313 70.516C53.4953 70.516 53.8803 68.668 53.8803 67.117C53.8803 65.566 53.4953 63.685 52.1313 63.685ZM62.4391 66.732C62.7361 66.138 63.3961 65.72 64.1331 65.72C64.6941 65.72 65.3761 65.929 65.7171 66.809C66.0691 66.105 66.6961 65.72 67.5211 65.72C68.8301 65.72 69.4791 66.567 69.4791 67.843V71H68.7311V68.151C68.7311 67.073 68.3681 66.347 67.4001 66.347C66.3221 66.347 65.9371 67.304 65.9371 68.261V71H65.1891V67.997C65.1891 66.996 64.9471 66.347 63.9461 66.347C63.2311 66.347 62.4501 66.985 62.4501 68.36V71H61.7021V66.985C61.7021 66.71 61.6911 66.204 61.6581 65.852H62.3731C62.3951 66.127 62.4171 66.512 62.4171 66.732H62.4391ZM77.287 70.296V71H72.304V70.175L75.494 66.952C75.967 66.468 76.429 65.885 76.429 65.17C76.429 64.268 75.725 63.685 74.889 63.685C74.053 63.685 73.448 64.268 73.283 65.071L72.502 64.917C72.722 63.817 73.668 63.014 74.889 63.014C76.143 63.014 77.232 63.74 77.232 65.159C77.232 66.16 76.649 66.831 75.967 67.513L73.162 70.296H77.287ZM26.2262 83.131C25.7862 83.78 25.0162 84.132 24.2792 84.132C22.6732 84.132 21.6172 82.944 21.6172 81.426C21.6172 79.908 22.6732 78.72 24.2792 78.72C25.0162 78.72 25.7862 79.072 26.2262 79.743H26.2482V75.684H26.9962V84H26.2482V83.131H26.2262ZM22.4092 81.426C22.4092 82.57 23.1132 83.494 24.3562 83.494C25.5112 83.494 26.3362 82.603 26.3362 81.426C26.3362 80.249 25.5112 79.347 24.3562 79.347C23.1132 79.347 22.4092 80.282 22.4092 81.426ZM30.7332 81.03H34.2422C34.1982 80.062 33.6042 79.347 32.5372 79.347C31.5362 79.347 30.7992 80.15 30.7332 81.03ZM35.0012 81.272C35.0012 81.371 35.0012 81.492 34.9902 81.624H30.7222C30.7442 82.658 31.5472 83.494 32.6032 83.494C33.3732 83.494 33.9672 83.065 34.2532 82.603L34.8142 83.043C34.2092 83.813 33.4502 84.132 32.6032 84.132C31.0742 84.132 29.9412 82.977 29.9412 81.426C29.9412 79.875 31.0742 78.72 32.5372 78.72C34.1542 78.72 35.0012 79.864 35.0012 81.272ZM42.7481 83.131V86.64H42.0001V78.852H42.7481V79.743H42.7811C43.2101 79.072 43.9801 78.72 44.7171 78.72C46.3231 78.72 47.3791 79.908 47.3791 81.426C47.3791 82.944 46.3231 84.132 44.7171 84.132C43.9801 84.132 43.2101 83.769 42.7811 83.131H42.7481ZM46.5871 81.426C46.5871 80.282 45.8831 79.347 44.6401 79.347C43.4851 79.347 42.6601 80.249 42.6601 81.426C42.6601 82.603 43.4851 83.494 44.6401 83.494C45.8831 83.494 46.5871 82.57 46.5871 81.426ZM51.0725 75.684V84H50.3245V75.684H51.0725ZM57.639 80.843V80.678C57.639 79.787 57.155 79.347 56.264 79.347C55.659 79.347 55.098 79.589 54.735 79.952L54.317 79.457C54.735 79.039 55.461 78.72 56.341 78.72C57.452 78.72 58.343 79.336 58.343 80.59V82.845C58.343 83.241 58.376 83.714 58.431 84H57.76C57.716 83.747 57.683 83.439 57.683 83.164H57.661C57.188 83.846 56.616 84.132 55.791 84.132C55.01 84.132 54.009 83.714 54.009 82.57C54.009 80.986 55.758 80.843 57.639 80.843ZM57.639 81.426H57.419C56.198 81.426 54.779 81.558 54.779 82.537C54.779 83.274 55.406 83.516 55.989 83.516C57.045 83.516 57.639 82.724 57.639 81.811V81.426ZM61.546 78.852H62.261C62.283 79.127 62.305 79.512 62.305 79.732H62.327C62.613 79.138 63.361 78.72 64.087 78.72C65.396 78.72 66.045 79.567 66.045 80.843V84H65.297V81.151C65.297 80.073 64.978 79.347 63.9 79.347C63.108 79.347 62.338 79.985 62.338 81.36V84H61.59V79.985C61.59 79.71 61.579 79.204 61.546 78.852ZM71.6226 78.852V79.479H70.1706V82.482C70.1706 83.252 70.4896 83.428 70.9406 83.428C71.1496 83.428 71.3916 83.362 71.5896 83.263L71.6226 83.912C71.3586 84.011 71.0836 84.066 70.7426 84.066C70.1926 84.066 69.4226 83.824 69.4226 82.691V79.479H68.3556V78.852H69.4226V77.4H70.1706V78.852H71.6226ZM77.3578 80.843V80.678C77.3578 79.787 76.8738 79.347 75.9828 79.347C75.3778 79.347 74.8168 79.589 74.4538 79.952L74.0358 79.457C74.4538 79.039 75.1798 78.72 76.0598 78.72C77.1708 78.72 78.0618 79.336 78.0618 80.59V82.845C78.0618 83.241 78.0948 83.714 78.1498 84H77.4788C77.4348 83.747 77.4018 83.439 77.4018 83.164H77.3798C76.9068 83.846 76.3348 84.132 75.5098 84.132C74.7288 84.132 73.7278 83.714 73.7278 82.57C73.7278 80.986 75.4768 80.843 77.3578 80.843ZM77.3578 81.426H77.1378C75.9168 81.426 74.4978 81.558 74.4978 82.537C74.4978 83.274 75.1248 83.516 75.7078 83.516C76.7638 83.516 77.3578 82.724 77.3578 81.811V81.426Z" fill="black"/>
<path d="M25 23H9.84106C4.95828 23 1 26.9583 1 31.8411V107.159C1 112.042 4.95827 116 9.84106 116H90.1589C95.0417 116 99 112.042 99 107.159V31.8411C99 26.9583 95.0417 23 90.1589 23H75.5" stroke="black"/>
</svg>
