<svg width="100" height="107" viewBox="0 0 100 107" fill="none" xmlns="http://www.w3.org/2000/svg">
<path d="M37.1186 43.862V46.337H39.5936V46.997H37.1186V49.472H36.4586V46.997H33.9836V46.337H36.4586V43.862H37.1186ZM44.1258 46.26V45.578H44.4668C45.4678 45.578 46.2818 45.182 46.2818 44.148C46.2818 43.279 45.5778 42.685 44.7418 42.685C44.0928 42.685 43.5648 43.004 43.2568 43.598L42.5858 43.246C43.0698 42.41 43.8398 42.014 44.7858 42.014C46.0068 42.014 47.0628 42.751 47.0628 44.104C47.0628 45.017 46.4798 45.677 45.7098 45.886V45.908C46.6008 46.095 47.2828 46.799 47.2828 47.844C47.2828 49.329 46.1278 50.198 44.7748 50.198C43.6418 50.198 42.7508 49.626 42.3108 48.603L43.0588 48.328C43.3228 49.065 43.9828 49.516 44.7748 49.516C45.6658 49.516 46.4908 48.889 46.4908 47.844C46.4908 46.667 45.4898 46.26 44.4668 46.26H44.1258ZM52.6627 42.014C54.5987 42.014 55.2147 44.093 55.2147 46.117C55.2147 48.141 54.5987 50.198 52.6627 50.198C50.7047 50.198 50.1107 48.141 50.1107 46.117C50.1107 44.093 50.7047 42.014 52.6627 42.014ZM52.6627 42.685C51.2767 42.685 50.9137 44.566 50.9137 46.117C50.9137 47.668 51.2767 49.516 52.6627 49.516C54.0267 49.516 54.4117 47.668 54.4117 46.117C54.4117 44.566 54.0267 42.685 52.6627 42.685ZM60.3635 42.014C62.2995 42.014 62.9155 44.093 62.9155 46.117C62.9155 48.141 62.2995 50.198 60.3635 50.198C58.4055 50.198 57.8115 48.141 57.8115 46.117C57.8115 44.093 58.4055 42.014 60.3635 42.014ZM60.3635 42.685C58.9775 42.685 58.6145 44.566 58.6145 46.117C58.6145 47.668 58.9775 49.516 60.3635 49.516C61.7275 49.516 62.1125 47.668 62.1125 46.117C62.1125 44.566 61.7275 42.685 60.3635 42.685ZM19.9245 62.131V65.64H19.1765V57.852H19.9245V58.743H19.9575C20.3865 58.072 21.1565 57.72 21.8935 57.72C23.4995 57.72 24.5555 58.908 24.5555 60.426C24.5555 61.944 23.4995 63.132 21.8935 63.132C21.1565 63.132 20.3865 62.769 19.9575 62.131H19.9245ZM23.7635 60.426C23.7635 59.282 23.0595 58.347 21.8165 58.347C20.6615 58.347 19.8365 59.249 19.8365 60.426C19.8365 61.603 20.6615 62.494 21.8165 62.494C23.0595 62.494 23.7635 61.57 23.7635 60.426ZM27.4789 58.985C27.4789 58.71 27.4679 58.204 27.4349 57.852H28.1499C28.1719 58.127 28.1939 58.512 28.1939 58.732H28.2159C28.5019 58.138 29.1399 57.72 29.8659 57.72C30.0529 57.72 30.2069 57.731 30.3609 57.775L30.2619 58.479C30.1739 58.446 29.9319 58.413 29.7339 58.413C28.9419 58.413 28.2269 58.985 28.2269 60.36V63H27.4789V58.985ZM37.6844 60.426C37.6844 61.977 36.5404 63.132 34.9344 63.132C33.3394 63.132 32.1954 61.977 32.1954 60.426C32.1954 58.875 33.3394 57.72 34.9344 57.72C36.5404 57.72 37.6844 58.875 37.6844 60.426ZM36.8924 60.426C36.8924 59.271 36.1334 58.347 34.9344 58.347C33.7464 58.347 32.9874 59.271 32.9874 60.426C32.9874 61.581 33.7464 62.494 34.9344 62.494C36.1334 62.494 36.8924 61.581 36.8924 60.426ZM40.636 57.852L42.385 62.197H42.407L44.002 57.852H44.816L42.253 64.331C41.945 65.123 41.527 65.64 40.636 65.64C40.416 65.64 40.185 65.618 39.965 65.574L40.042 64.892C40.207 64.947 40.394 64.98 40.592 64.98C41.098 64.98 41.362 64.65 41.582 64.067L42 62.989L39.8 57.852H40.636ZM47.7231 60.03H51.2321C51.1881 59.062 50.5941 58.347 49.5271 58.347C48.5261 58.347 47.7891 59.15 47.7231 60.03ZM51.9911 60.272C51.9911 60.371 51.9911 60.492 51.9801 60.624H47.7121C47.7341 61.658 48.5371 62.494 49.5931 62.494C50.3631 62.494 50.9571 62.065 51.2431 61.603L51.8041 62.043C51.1991 62.813 50.4401 63.132 49.5931 63.132C48.0641 63.132 46.9311 61.977 46.9311 60.426C46.9311 58.875 48.0641 57.72 49.5271 57.72C51.1441 57.72 51.9911 58.864 51.9911 60.272ZM59.21 58.611L58.627 59.029C58.385 58.633 57.868 58.347 57.307 58.347C56.108 58.347 55.338 59.249 55.338 60.426C55.338 61.592 56.097 62.494 57.296 62.494C57.945 62.494 58.396 62.219 58.693 61.823L59.254 62.241C58.814 62.78 58.187 63.132 57.296 63.132C55.635 63.132 54.546 61.977 54.546 60.426C54.546 58.875 55.635 57.72 57.296 57.72C57.989 57.72 58.77 58.017 59.21 58.611ZM64.061 57.852V58.479H62.609V61.482C62.609 62.252 62.928 62.428 63.379 62.428C63.588 62.428 63.83 62.362 64.028 62.263L64.061 62.912C63.797 63.011 63.522 63.066 63.181 63.066C62.631 63.066 61.861 62.824 61.861 61.691V58.479H60.794V57.852H61.861V56.4H62.609V57.852H64.061ZM71.6662 60.426C71.6662 61.977 70.5222 63.132 68.9162 63.132C67.3212 63.132 66.1772 61.977 66.1772 60.426C66.1772 58.875 67.3212 57.72 68.9162 57.72C70.5222 57.72 71.6662 58.875 71.6662 60.426ZM70.8742 60.426C70.8742 59.271 70.1152 58.347 68.9162 58.347C67.7282 58.347 66.9692 59.271 66.9692 60.426C66.9692 61.581 67.7282 62.494 68.9162 62.494C70.1152 62.494 70.8742 61.581 70.8742 60.426ZM77.9068 58.644L77.3348 59.073C77.1148 58.644 76.6418 58.347 76.0698 58.347C75.5308 58.347 74.9808 58.578 74.9808 59.15C74.9808 59.634 75.3658 59.854 76.2128 60.03C77.4228 60.283 77.9948 60.734 77.9948 61.537C77.9948 62.714 77.0048 63.132 76.0588 63.132C75.2778 63.132 74.4968 62.824 74.0238 62.131L74.6178 61.691C74.8818 62.142 75.4428 62.494 76.0478 62.494C76.6858 62.494 77.2578 62.263 77.2578 61.592C77.2578 61.053 76.7188 60.833 75.7398 60.602C75.1348 60.459 74.2658 60.195 74.2658 59.216C74.2658 58.171 75.1678 57.72 76.1028 57.72C76.8178 57.72 77.5768 58.061 77.9068 58.644ZM16.1705 71.732C16.4675 71.138 17.1275 70.72 17.8645 70.72C18.4255 70.72 19.1075 70.929 19.4485 71.809C19.8005 71.105 20.4275 70.72 21.2525 70.72C22.5615 70.72 23.2105 71.567 23.2105 72.843V76H22.4625V73.151C22.4625 72.073 22.0995 71.347 21.1315 71.347C20.0535 71.347 19.6685 72.304 19.6685 73.261V76H18.9205V72.997C18.9205 71.996 18.6785 71.347 17.6775 71.347C16.9625 71.347 16.1815 71.985 16.1815 73.36V76H15.4335V71.985C15.4335 71.71 15.4225 71.204 15.3895 70.852H16.1045C16.1265 71.127 16.1485 71.512 16.1485 71.732H16.1705ZM31.5794 73.426C31.5794 74.977 30.4354 76.132 28.8294 76.132C27.2344 76.132 26.0904 74.977 26.0904 73.426C26.0904 71.875 27.2344 70.72 28.8294 70.72C30.4354 70.72 31.5794 71.875 31.5794 73.426ZM30.7874 73.426C30.7874 72.271 30.0284 71.347 28.8294 71.347C27.6414 71.347 26.8824 72.271 26.8824 73.426C26.8824 74.581 27.6414 75.494 28.8294 75.494C30.0284 75.494 30.7874 74.581 30.7874 73.426ZM35.301 75.131H35.279V76H34.531V67.684H35.279V71.743H35.301C35.741 71.072 36.511 70.72 37.248 70.72C38.854 70.72 39.91 71.908 39.91 73.426C39.91 74.944 38.854 76.132 37.248 76.132C36.511 76.132 35.741 75.78 35.301 75.131ZM39.118 73.426C39.118 72.282 38.414 71.347 37.171 71.347C36.016 71.347 35.191 72.249 35.191 73.426C35.191 74.603 36.016 75.494 37.171 75.494C38.414 75.494 39.118 74.57 39.118 73.426ZM43.5919 70.852V76H42.8439V70.852H43.5919ZM43.7459 68.872C43.7459 69.18 43.4819 69.4 43.2179 69.4C42.9539 69.4 42.6899 69.18 42.6899 68.872C42.6899 68.564 42.9539 68.344 43.2179 68.344C43.4819 68.344 43.7459 68.564 43.7459 68.872ZM47.6729 67.684V76H46.9249V67.684H47.6729ZM51.7534 70.852V76H51.0054V70.852H51.7534ZM51.9074 68.872C51.9074 69.18 51.6434 69.4 51.3794 69.4C51.1154 69.4 50.8514 69.18 50.8514 68.872C50.8514 68.564 51.1154 68.344 51.3794 68.344C51.6434 68.344 51.9074 68.564 51.9074 68.872ZM58.3094 72.843V72.678C58.3094 71.787 57.8254 71.347 56.9344 71.347C56.3294 71.347 55.7684 71.589 55.4054 71.952L54.9874 71.457C55.4054 71.039 56.1314 70.72 57.0114 70.72C58.1224 70.72 59.0134 71.336 59.0134 72.59V74.845C59.0134 75.241 59.0464 75.714 59.1014 76H58.4304C58.3864 75.747 58.3534 75.439 58.3534 75.164H58.3314C57.8584 75.846 57.2864 76.132 56.4614 76.132C55.6804 76.132 54.6794 75.714 54.6794 74.57C54.6794 72.986 56.4284 72.843 58.3094 72.843ZM58.3094 73.426H58.0894C56.8684 73.426 55.4494 73.558 55.4494 74.537C55.4494 75.274 56.0764 75.516 56.6594 75.516C57.7154 75.516 58.3094 74.724 58.3094 73.811V73.426ZM62.2604 71.985C62.2604 71.71 62.2494 71.204 62.2164 70.852H62.9314C62.9534 71.127 62.9754 71.512 62.9754 71.732H62.9974C63.2834 71.138 63.9214 70.72 64.6474 70.72C64.8344 70.72 64.9884 70.731 65.1424 70.775L65.0434 71.479C64.9554 71.446 64.7134 71.413 64.5154 71.413C63.7234 71.413 63.0084 71.985 63.0084 73.36V76H62.2604V71.985ZM68.3032 70.852V76H67.5552V70.852H68.3032ZM68.4572 68.872C68.4572 69.18 68.1932 69.4 67.9292 69.4C67.6652 69.4 67.4012 69.18 67.4012 68.872C67.4012 68.564 67.6652 68.344 67.9292 68.344C68.1932 68.344 68.4572 68.564 68.4572 68.872ZM76.7292 73.426C76.7292 74.977 75.5852 76.132 73.9792 76.132C72.3842 76.132 71.2402 74.977 71.2402 73.426C71.2402 71.875 72.3842 70.72 73.9792 70.72C75.5852 70.72 76.7292 71.875 76.7292 73.426ZM75.9372 73.426C75.9372 72.271 75.1782 71.347 73.9792 71.347C72.7912 71.347 72.0322 72.271 72.0322 73.426C72.0322 74.581 72.7912 75.494 73.9792 75.494C75.1782 75.494 75.9372 74.581 75.9372 73.426ZM82.9698 71.644L82.3978 72.073C82.1778 71.644 81.7048 71.347 81.1328 71.347C80.5938 71.347 80.0438 71.578 80.0438 72.15C80.0438 72.634 80.4288 72.854 81.2758 73.03C82.4858 73.283 83.0578 73.734 83.0578 74.537C83.0578 75.714 82.0678 76.132 81.1218 76.132C80.3408 76.132 79.5598 75.824 79.0868 75.131L79.6808 74.691C79.9448 75.142 80.5058 75.494 81.1108 75.494C81.7488 75.494 82.3208 75.263 82.3208 74.592C82.3208 74.053 81.7818 73.833 80.8028 73.602C80.1978 73.459 79.3288 73.195 79.3288 72.216C79.3288 71.171 80.2308 70.72 81.1658 70.72C81.8808 70.72 82.6398 71.061 82.9698 71.644Z" fill="black"/>
<path d="M25 13H9.84106C4.95828 13 1 16.9583 1 21.8411V97.1589C1 102.042 4.95827 106 9.84106 106H90.1589C95.0417 106 99 102.042 99 97.1589V21.8411C99 16.9583 95.0417 13 90.1589 13H75.5" stroke="black"/>
<path d="M37 25V5.98802H42.988V0H56.012V11.976H62V25H51.9701V19.012H47.0299V25H37ZM38.0479 23.9521H42.988V19.012H38.0479V23.9521ZM38.0479 17.9641H42.988V13.024H38.0479V17.9641ZM38.0479 11.976H42.988V7.03593H38.0479V11.976ZM44.0359 17.9641H48.976V13.024H44.0359V17.9641ZM44.0359 11.976H48.976V7.03593H44.0359V11.976ZM44.0359 5.98802H48.976V1.0479H44.0359V5.98802ZM50.024 17.9641H54.9641V13.024H50.024V17.9641ZM50.024 11.976H54.9641V7.03593H50.024V11.976ZM50.024 5.98802H54.9641V1.0479H50.024V5.98802ZM56.012 23.9521H60.9521V19.012H56.012V23.9521ZM56.012 17.9641H60.9521V13.024H56.012V17.9641Z" fill="black"/>
</svg>
